<?xml version="1.0" encoding="UTF-8" standalone="no" ?>
<!DOCTYPE svg PUBLIC "-//W3C//DTD SVG 1.1//EN" "http://www.w3.org/Graphics/SVG/1.1/DTD/svg11.dtd">
<svg xmlns="http://www.w3.org/2000/svg" xmlns:xlink="http://www.w3.org/1999/xlink" version="1.1" width="138.59210000000002" height="158.51000000000002" xml:space="preserve">
<desc>Created with Fabric.js 1.6.0-rc.1</desc>
<defs></defs>
<g style="stroke: none; stroke-width: 1; stroke-dasharray: none; stroke-linecap: butt; stroke-linejoin: miter; stroke-miterlimit: 10; fill: none; fill-rule: nonzero; opacity: 1;" transform="translate(9.999999999999993 10) scale(0.27 0.27)" >
  <path d="M 427.826 365.485 c -7.149 -2.276 -14.8 1.68 -17.075 8.836 c -21.012 66.089 -81.768 110.492 -151.182 110.492 c -87.457 0 -158.609 -71.151 -158.609 -158.61 c 0 -87.457 71.151 -158.609 158.609 -158.609 c 69.655 0 132.173 46.572 152.035 113.255 c 2.144 7.195 9.717 11.292 16.908 9.147 c 7.195 -2.144 11.291 -9.714 9.147 -16.908 c -9.929 -33.337 -29.539 -63.678 -55.779 -86.705 v -60.502 C 381.88 56.47 325.41 0 256 0 c -15.482 0 -30.605 2.781 -44.951 8.268 c -7.013 2.681 -10.523 10.539 -7.844 17.552 c 2.682 7.012 10.539 10.526 17.552 7.842 c 11.234 -4.296 23.092 -6.475 35.242 -6.475 c 54.419 0 98.694 44.274 98.694 98.694 v 40.708 c -28.664 -17.166 -61.165 -26.183 -95.124 -26.183 c -37.757 0 -72.912 11.332 -102.265 30.757 v -45.281 c 0 -19.692 5.779 -38.7 16.711 -54.969 c 4.188 -6.231 2.53 -14.677 -3.7 -18.864 c -6.231 -4.188 -14.679 -2.533 -18.865 3.7 c -13.957 20.767 -21.333 45.02 -21.333 70.133 v 67.189 c -34.729 33.778 -56.344 80.974 -56.344 133.132 c 0 102.448 83.346 185.798 185.796 185.798 c 40.231 0 78.516 -12.649 110.717 -36.578 c 31.565 -23.455 54.517 -55.567 66.374 -92.863 C 438.936 375.403 434.98 367.759 427.826 365.485 z" style="stroke: none; stroke-width: 1; stroke-dasharray: none; stroke-linecap: butt; stroke-linejoin: miter; stroke-miterlimit: 10; fill: #000047; fill-rule: nonzero; opacity: 1;" transform=" matrix(1 0 0 1 0 0) " stroke-linecap="round" />
  <circle cx="255.99900000000002" cy="326.199" r="109.009" style="stroke: none; stroke-width: 1; stroke-dasharray: none; stroke-linecap: butt; stroke-linejoin: miter; stroke-miterlimit: 10; fill: #000047; fill-rule: nonzero; opacity: 1;" transform="  matrix(1 0 0 1 0 0) "/>
  <path d="M 256 448.809 c -67.605 0 -122.607 -55.001 -122.607 -122.607 S 188.395 203.596 256 203.596 s 122.607 55.001 122.607 122.607 S 323.605 448.809 256 448.809 z M 256 230.783 c -52.615 0 -95.419 42.806 -95.419 95.419 s 42.804 95.419 95.419 95.419 s 95.419 -42.806 95.419 -95.419 S 308.615 230.783 256 230.783 z" style="stroke: none; stroke-width: 1; stroke-dasharray: none; stroke-linecap: butt; stroke-linejoin: miter; stroke-miterlimit: 10; fill: #000047; fill-rule: nonzero; opacity: 1;" transform=" matrix(1 0 0 1 0 0) " stroke-linecap="round" />
  <path d="M 275.224 322.838 l 24.511 -24.511 c 5.308 -5.308 5.308 -13.916 0 -19.224 c -5.307 -5.308 -13.912 -5.308 -19.226 0 l -24.511 24.511 l -24.511 -24.511 c -5.31 -5.308 -13.915 -5.308 -19.226 0 c -5.308 5.308 -5.308 13.916 0 19.224 l 24.511 24.511 l -24.511 24.511 c -5.308 5.308 -5.308 13.916 0 19.224 c 2.655 2.655 6.134 3.982 9.612 3.982 s 6.957 -1.328 9.612 -3.982 l 24.511 -24.511 l 24.511 24.511 c 2.655 2.655 6.134 3.982 9.612 3.982 c 3.479 0 6.957 -1.328 9.612 -3.982 c 5.308 -5.308 5.308 -13.916 0 -19.224 L 275.224 322.838 z" style="stroke: none; stroke-width: 1; stroke-dasharray: none; stroke-linecap: butt; stroke-linejoin: miter; stroke-miterlimit: 10; fill: #000047; fill-rule: nonzero; opacity: 1;" transform=" matrix(1 0 0 1 0 0) " stroke-linecap="round" />
</g>
</svg>