<?xml version="1.0" encoding="UTF-8" standalone="no" ?>
<!DOCTYPE svg PUBLIC "-//W3C//DTD SVG 1.1//EN" "http://www.w3.org/Graphics/SVG/1.1/DTD/svg11.dtd">
<svg xmlns="http://www.w3.org/2000/svg" xmlns:xlink="http://www.w3.org/1999/xlink" version="1.1" width="191.64000000000001" height="179.38" xml:space="preserve">
<desc>Created with Fabric.js 1.6.0-rc.1</desc>
<defs></defs>
<g style="stroke: none; stroke-width: 1; stroke-dasharray: none; stroke-linecap: butt; stroke-linejoin: miter; stroke-miterlimit: 10; fill: none; fill-rule: nonzero; opacity: 1;" transform="translate(26 26) scale(2.31 2.31)" >
  <path d="M 51 49.957 c 0 -3.038 -1.717 -5.816 -4.434 -7.174 l -9.552 -4.776 C 35.78 37.39 35 36.128 35 34.748 V 31 c 0.268 -0.305 0.576 -0.698 0.904 -1.162 c 1.302 -1.838 2.286 -3.861 2.969 -5.984 C 40.098 23.477 41 22.345 41 21 v -4 c 0 -0.88 -0.391 -1.667 -1 -2.217 V 9 c 0 0 1.187 -9 -11 -9 C 16.812 0 18 9 18 9 v 5.783 c -0.609 0.55 -1 1.337 -1 2.217 v 4 c 0 1.054 0.554 1.981 1.383 2.517 C 19.382 27.869 22 31 22 31 v 3.655 c 0 1.333 -0.728 2.56 -1.899 3.198 L 11.18 42.72 C 8.603 44.125 7 46.826 7 49.761 V 52 c 0 0 0 0.657 0 1 c 0 2.761 9.85 5 22 5 s 22 -2.239 22 -5 c 0 -0.343 0 -1 0 -1 V 49.957 z" style="stroke: none; stroke-width: 1; stroke-dasharray: none; stroke-linecap: butt; stroke-linejoin: miter; stroke-miterlimit: 10; fill: #a0cdd4; fill-rule: nonzero; opacity: 1;" transform=" matrix(1 0 0 1 0 0) " stroke-linecap="round" />
</g>
<g style="stroke: none; stroke-width: 1; stroke-dasharray: none; stroke-linecap: butt; stroke-linejoin: miter; stroke-miterlimit: 10; fill: none; fill-rule: nonzero; opacity: 1;" transform="translate(10 10) scale(0.28 0.26)" >
  <path d="M 306 0 C 137.012 0 0 137.012 0 306 c 0 169.026 137.012 306 306 306 s 306 -136.974 306 -306 C 612 137.012 474.988 0 306 0 z M 306 573.75 C 158.125 573.75 38.25 453.875 38.25 306 C 38.25 158.125 158.125 38.25 306 38.25 c 147.875 0 267.75 119.875 267.75 267.75 C 573.75 453.875 453.875 573.75 306 573.75 z" style="stroke: none; stroke-width: 1; stroke-dasharray: none; stroke-linecap: butt; stroke-linejoin: miter; stroke-miterlimit: 10; fill: #a0cdd4; fill-rule: nonzero; opacity: 1;" transform="" stroke-linecap="round" />
</g>
</svg>