<?xml version="1.0" encoding="UTF-8" standalone="no" ?>
<!DOCTYPE svg PUBLIC "-//W3C//DTD SVG 1.1//EN" "http://www.w3.org/Graphics/SVG/1.1/DTD/svg11.dtd">
<svg xmlns="http://www.w3.org/2000/svg" xmlns:xlink="http://www.w3.org/1999/xlink" version="1.1" width="138.7046" height="214.355" xml:space="preserve">
<desc>Created with Fabric.js 1.6.0-rc.1</desc>
<defs></defs>
<g style="stroke: none; stroke-width: 1; stroke-dasharray: none; stroke-linecap: butt; stroke-linejoin: miter; stroke-miterlimit: 10; fill: none; fill-rule: nonzero; opacity: 1;" transform="translate(10 10) scale(0.42 0.42)" >
  <path d="m 1730 2410 c 290 -220 430 -470 480 -690 c 10 -60 40 -170 30 -220 c -10 -70 -50 -100 -100 -110 c -50 -10 -130 80 -170 140 c -120 180 -380 370 -380 370 l -450 630 c 0 0 210 160 590 -120" style="stroke: none; stroke-width: 1; stroke-dasharray: none; stroke-linecap: butt; stroke-linejoin: miter; stroke-miterlimit: 10; fill: #a0cdd3; fill-rule: nonzero; opacity: 1;" transform=" matrix(0.125 0 0 -0.125 0 464) " stroke-linecap="round" />
  <path d="m 2190 1710 c -50 220 -180 470 -470 680 c -180 130 -310 160 -410 160 c -50 0 -90 -10 -120 -20 c -10 0 -20 0 -30 -10 l 440 -610 c 30 -20 270 -200 390 -370 c 20 -30 40 -60 70 -90 c 30 -20 60 -40 70 -40 c 0 0 0 0 0 0 c 50 10 80 30 90 100 c 0 0 0 10 0 10 c 0 50 -20 140 -30 190 m -50 -340 c 0 0 -10 0 -10 0 c -30 0 -60 30 -100 60 c -30 30 -50 60 -70 90 c -60 90 -160 180 -240 250 c -80 70 -140 120 -140 120 l 0 0 l -460 630 c 0 0 0 20 10 20 c 0 0 60 50 180 50 c 100 0 250 -40 430 -170 c 300 -220 430 -470 490 -700 c 10 -50 30 -140 30 -200 c 0 0 0 -10 0 -20 c -10 -80 -60 -120 -120 -130" style="stroke: none; stroke-width: 1; stroke-dasharray: none; stroke-linecap: butt; stroke-linejoin: miter; stroke-miterlimit: 10; fill: #a0cdd3; fill-rule: nonzero; opacity: 1;" transform=" matrix(0.125 0 0 -0.125 0 464) " stroke-linecap="round" />
  <path d="m 2090 1630 c -30 0 -70 10 -110 40 c -20 10 -40 30 -60 50 c -10 70 -20 130 -30 200 c -20 180 -50 340 -140 450 c 190 -150 310 -320 380 -480 c 10 -20 10 -30 20 -40 c 50 -160 10 -220 -60 -220" style="stroke: none; stroke-width: 1; stroke-dasharray: none; stroke-linecap: butt; stroke-linejoin: miter; stroke-miterlimit: 10; fill: #f0f7f5; fill-rule: nonzero; opacity: 1;" transform=" matrix(0.125 0 0 -0.125 0 464) " stroke-linecap="round" />
  <path d="m 1920 1440 c 30 -525 80 -994 40 -1230 c -20 -81 -40 -134.5 -90 -153 c -230 -97.7 -540 431 -590 655 c 40 151 90 248 90 248 c 0 0 -310 -936 -637 -931.8 c -326 4.3 -68 971.8 -123 1381.8 c -12 90 -49 260 -49 260 c 0 0 -366 -340 -398 -360 c -73 -50 -144.8 10 -144.7 130 c 0.1 40 59.4 240 181.7 450 c 107 180 267 360 403 470 c 186 160 397 210 537 220 c 680 50 750 -560 780 -1140" style="stroke: none; stroke-width: 1; stroke-dasharray: none; stroke-linecap: butt; stroke-linejoin: miter; stroke-miterlimit: 10; fill: #a0cdd3; fill-rule: nonzero; opacity: 1;" transform=" matrix(0.125 0 0 -0.125 0 464) " stroke-linecap="round" />
  <path d="m 1240 673 c 10 15 10 30 20 45 c 40 152 100 250 100 251 c 0 8 10 12 20 8 c 10 -4 10 -14 10 -23 c 0 0 -40 -105 -90 -244 c 20 -100 100 -262 190 -398 c 100 -140 220 -250.1 320 -248.5 c 20 0 40 3.2 60 10.4 c 30 13.5 60 60.1 70 140.1 c 10 62 20 142 20 235 c 0 253 -40 611 -60 991 c -10 280 -40 560 -130 780 c -90 210 -250 350 -560 350 c -20 0 -40 0 -70 0 C 1000 2560 797 2510 614 2350 C 481 2240 321 2060 216 1880 C 155 1780 110 1670 80.5 1590 C 51.3 1520 36.9 1460 36.6 1440 l 0.1 0 c -0.1 -40 10 -70 24.6 -100 c 14.8 -20 32.7 -30 52.7 -30 c 11 0 25 10 39 20 c 5 0 35 30 74 60 c 116 100 321 290 322 290 c 4 10 11 10 17 10 c 7 0 11 -10 13 -20 c 0 0 37 -160 49 -250 c 6 -50 8 -100 8 -150 c 0 -250 -53 -601 -53 -863 c 0 -107 9 -200 33 -263 c 26 -64.3 60 -96.1 117 -97.5 l 2 0 c 72 -0.4 149 53.4 223 139.5 c 112 128 212 324 282 487 M 735 9.98 l -1 0 C 658 10.3 608 59.6 582 130 c -27 72 -35 168 -36 277 c 1 266 54 613 54 863 c 0 50 -3 100 -8 140 c -9 60 -31 170 -42 230 c -33 -40 -97 -90 -164 -160 c -47 -40 -96 -80 -135 -120 c -39 -30 -67 -60 -78 -60 c -19 -20 -40 -20 -59 -20 c -33.5 0 -63.3 10 -82.9 40 c -19.7 30 -30.83 70 -31.022 120 L 0 1440 c 0.43 30 15.7 80 46.1 170 c 30.5 80 75.9 180 137.9 290 c 108 180 270 360 407 480 c 190 160 405 210 549 220 c 30 0 50 0 70 0 c 320 10 500 -150 590 -370 c 100 -220 120 -510 140 -790 c 20 -380 50 -735 50 -991 c 0 -94 0 -176 -10 -242 c -20 -83 -50 -143.5 -100 -166.9 c -20 -9 -40 -13.3 -70 -13.3 C 1690 28.4 1570 149 1460 291 C 1380 413 1310 553 1270 657 C 1250 603 1220 544 1190 486 C 1130 369 1060 251 985 162 C 909 73.1 826 10.5 735 9.98" style="stroke: none; stroke-width: 1; stroke-dasharray: none; stroke-linecap: butt; stroke-linejoin: miter; stroke-miterlimit: 10; fill: #a0cdd3; fill-rule: nonzero; opacity: 1;" transform=" matrix(0.125 0 0 -0.125 0 464) " stroke-linecap="round" />
  <path d="m 1310 852 c 0 -14 -10 -28 -10 -41 l 30 -142 c 50 -200 310 -624 480 -624 c 20 0 30 2.5 40 7.6 c 10 5.5 40 27.6 50 113.4 c 10 16 10 34 10 54 c 0 -1 -10 -1 -10 -1 c -180 0 -430 424 -480 624 l -40 167 l -70 -158 z M 646 789 C 620 490 590 150 679 52.2 C 693 36 710 28.6 733 28.3 l 2 -0.1 C 856 28.2 1020 224 1170 559 C 1050 331 921 202 823 202 l -1 0 c -23 0 -40 7 -55 24 c -88 98 -59 437 -32 737 c 19 217 -69 47 -89 -174" style="stroke: none; stroke-width: 1; stroke-dasharray: none; stroke-linecap: butt; stroke-linejoin: miter; stroke-miterlimit: 10; fill: #a0cdd3; fill-rule: nonzero; opacity: 1;" transform=" matrix(0.125 0 0 -0.125 0 464) " stroke-linecap="round" />
  <path d="m 1610 1210 c -120 0 -220 60 -310 110 c -100 50 -190 100 -290 100 c 0 0 -10 0 -16 0 c -7 0 -14 0 -21 0 c -223 0 -272 250 -287 300 c -10 50 -31 70 -61 70 c -60 0 -154 -80 -244 -120 c -23 0 -46 -10 -68 -10 c -18 0 -36 0 -51 10 c -54 10 -28 180 1 230 c 85 150 216 320 422 480 c 198 150 425 180 535 190 c 0 0 10 0 20 0 c 290 -10 440 -150 530 -350 c 80 -180 110 -410 120 -650 c 0 -30 0 -70 -10 -100 c -20 -150 -10 -190 -170 -240 c -30 -10 -70 -20 -100 -20" style="stroke: none; stroke-width: 1; stroke-dasharray: none; stroke-linecap: butt; stroke-linejoin: miter; stroke-miterlimit: 10; fill: #f0f7f5; fill-rule: nonzero; opacity: 1;" transform=" matrix(0.125 0 0 -0.125 0 464) " stroke-linecap="round" />
  <path d="m 1880 1570 c -20 240 -50 470 -130 650 c -90 200 -240 340 -520 350 c 10 0 10 0 20 0 c 10 0 10 0 20 0 c 150 -10 260 -50 350 -100 c 20 -20 40 -40 60 -60 c 40 -50 80 -110 110 -180 c 40 -90 70 -200 90 -310 c 0 0 0 -10 0 -10 c 10 -110 10 -220 0 -340" style="stroke: none; stroke-width: 1; stroke-dasharray: none; stroke-linecap: butt; stroke-linejoin: miter; stroke-miterlimit: 10; fill: #f0f7f5; fill-rule: nonzero; opacity: 1;" transform=" matrix(0.125 0 0 -0.125 0 464) " stroke-linecap="round" />
  <path d="m 640 3180 c 0 -270 224 -500 500 -500 c 280 0 500 230 500 500 c 0 280 -220 500 -500 500 c -276 0 -500 -220 -500 -500" style="stroke: none; stroke-width: 1; stroke-dasharray: none; stroke-linecap: butt; stroke-linejoin: miter; stroke-miterlimit: 10; fill: #a0cdd3; fill-rule: nonzero; opacity: 1;" transform=" matrix(0.125 0 0 -0.125 0 464) " stroke-linecap="round" />
  <path d="m 1620 3180 c 0 270 -210 480 -480 480 c -266 0 -481 -210 -482 -480 c 1 -260 216 -480 482 -480 c 270 0 480 220 480 480 m 40 0 c 0 -280 -230 -520 -520 -520 c -286 0 -518 240 -518 520 c 0 290 232 520 518 520 c 290 0 520 -230 520 -520" style="stroke: none; stroke-width: 1; stroke-dasharray: none; stroke-linecap: butt; stroke-linejoin: miter; stroke-miterlimit: 10; fill: #a0cdd3; fill-rule: nonzero; opacity: 1;" transform=" matrix(0.125 0 0 -0.125 0 464) " stroke-linecap="round" />
  <path d="m 1390 3030 c -320 0 -300 170 -485 250 c -79 40 -211 0 -157 130 c 33 80 87 140 154 190 c 70 40 148 60 238 60 c 200 0 370 -120 440 -290 c 20 -40 20 -90 20 -130 c 0 -110 -90 -200 -180 -200 c -10 0 -20 -10 -30 -10" style="stroke: none; stroke-width: 1; stroke-dasharray: none; stroke-linecap: butt; stroke-linejoin: miter; stroke-miterlimit: 10; fill: #f0f7f5; fill-rule: nonzero; opacity: 1;" transform=" matrix(0.125 0 0 -0.125 0 464) " stroke-linecap="round" />
  <path d="m 1580 3360 c -70 170 -240 290 -440 290 c -90 0 -168 -30 -238 -70 c 73 60 158 90 258 90 c 200 0 370 -130 420 -310" style="stroke: none; stroke-width: 1; stroke-dasharray: none; stroke-linecap: butt; stroke-linejoin: miter; stroke-miterlimit: 10; fill: #f0f7f5; fill-rule: nonzero; opacity: 1;" transform=" matrix(0.125 0 0 -0.125 0 464) " stroke-linecap="round" />
</g>
</svg>